<?xml version="1.0" standalone="no"?><!DOCTYPE svg PUBLIC "-//W3C//DTD SVG 1.1//EN" "http://www.w3.org/Graphics/SVG/1.1/DTD/svg11.dtd"><svg t="1740473212398" class="icon" viewBox="0 0 1024 1024" version="1.1" xmlns="http://www.w3.org/2000/svg" p-id="8808" xmlns:xlink="http://www.w3.org/1999/xlink" width="200" height="200"><path d="M892.416 14.336H757.76c-23.04 0-41.984 18.944-41.984 41.984v41.984h-99.84V56.32c0-23.04-18.944-41.984-41.984-41.984H438.272c-23.04 0-41.984 18.944-41.984 41.984v41.984H301.568V56.32c0-23.04-18.944-41.984-41.984-41.984H124.416c-23.04 0-41.984 18.944-41.984 41.984v656.384c0 40.448 22.016 78.336 56.832 98.816l312.32 180.224c17.408 10.24 37.376 15.36 56.832 15.36s39.424-5.12 56.832-15.36l312.32-180.224c35.328-20.48 56.832-57.856 56.832-98.816V56.32c0.512-23.04-18.432-41.984-41.984-41.984zM237.568 77.824v84.48h222.72V77.824h91.648v84.48h227.84V77.824h91.648v219.648H146.432V77.824h91.136z m608.256 677.888l-312.32 180.224c-15.36 8.704-34.304 8.704-50.176 0l-312.32-180.224c-15.36-8.704-25.088-25.6-25.088-43.008V361.984H870.4v350.72c0.512 17.408-9.216 34.304-24.576 43.008z" fill="#303742" p-id="8809"></path><path d="M512 453.12c-83.456 0-151.552 68.096-151.552 151.552v177.152h64V604.16c0-48.128 39.424-87.552 87.552-87.552s87.552 39.424 87.552 87.552v107.52H469.504v64h194.048V604.16c0-83.456-68.096-151.04-151.552-151.04z" fill="#303742" p-id="8810"></path></svg>