<?xml version="1.0" standalone="no"?><!DOCTYPE svg PUBLIC "-//W3C//DTD SVG 1.1//EN" "http://www.w3.org/Graphics/SVG/1.1/DTD/svg11.dtd"><svg t="1739679759649" class="icon" viewBox="0 0 1024 1024" version="1.1" xmlns="http://www.w3.org/2000/svg" p-id="5371" xmlns:xlink="http://www.w3.org/1999/xlink" width="200" height="200"><path d="M20.11591111 969.17428148c49.27336297-171.60722963 97.93991111-341.02992592 146.60645926-510.45262223 9.70903703-33.61754075 15.65582222-69.05552592 30.09801481-100.48853333 31.31164445-67.96325925 18.20444445-128.40201482-19.53943703-188.7194074-23.66577778-37.74388148-42.71976297-78.40047408-67.4778074-124.5184 80.22091852 9.10222222 154.49505185 16.384 228.52645925 26.09303703 150.24734815 19.78216297 300.61605925 38.47205925 449.64977778 66.38554075 114.56663703 21.48124445 182.40853333 83.25499259 199.64207407 182.28717037 7.88859259 45.63247408-4.85451852 89.32314075-14.80628148 132.77108148-27.54939259 120.14933333-51.70062222 241.63365925-120.39205926 347.46216296-72.21096297 111.53256297-169.54405925 174.27721482-307.53374814 171.60722964-164.32545185-3.15543703-328.77226667-0.36408889-493.21908149-0.24272593-9.46631111 0-18.93262222-1.21362963-31.55437037-2.18453334z m303.16468148-208.98702223c65.17191111 0 124.15431111 1.94180741 183.01534816-0.48545184 72.0896-3.03407408 124.88248889-36.77297778 153.6455111-105.22168889 29.97665185-71.24005925 53.52106667-144.54328889 72.93914074-219.06014815 15.04900741-57.76877037-15.53445925-105.22168889-72.69641481-108.49848889-68.44871111-3.76225185-137.14014815-0.84954075-208.13748148-0.84954073-42.23431111 142.84420741-84.83271111 286.17386667-128.76610371 434.1153185z" fill="#298AFE" p-id="5372"></path></svg>