<?xml version="1.0" standalone="no"?><!DOCTYPE svg PUBLIC "-//W3C//DTD SVG 1.1//EN" "http://www.w3.org/Graphics/SVG/1.1/DTD/svg11.dtd"><svg t="1740473079281" class="icon" viewBox="0 0 1024 1024" version="1.1" xmlns="http://www.w3.org/2000/svg" p-id="5658" xmlns:xlink="http://www.w3.org/1999/xlink" width="200" height="200"><path d="M480 896c-54.4 0-96-41.6-96-96v-160c0-54.4 41.6-96 96-96h256c54.4 0 96 41.6 96 96v160c0 54.4-41.6 96-96 96h-256z" fill="#65B1DD" p-id="5659"></path><path d="M736 576c35.2 0 64 28.8 64 64v160c0 35.2-28.8 64-64 64h-256c-35.2 0-64-28.8-64-64v-160c0-35.2 28.8-64 64-64h256m0-64h-256c-70.4 0-128 57.6-128 128v160c0 70.4 57.6 128 128 128h256c70.4 0 128-57.6 128-128v-160c0-70.4-57.6-128-128-128z" fill="#FFFFFF" p-id="5660"></path><path d="M128 960c-54.4 0-96-41.6-96-96v-224c0-54.4 41.6-96 96-96h320c54.4 0 96 41.6 96 96v224c0 54.4-41.6 96-96 96H128z" fill="#336697" p-id="5661"></path><path d="M448 576c35.2 0 64 28.8 64 64v224c0 35.2-28.8 64-64 64H128c-35.2 0-64-28.8-64-64v-224c0-35.2 28.8-64 64-64h320m0-64H128c-70.4 0-128 57.6-128 128v224c0 70.4 57.6 128 128 128h320c70.4 0 128-57.6 128-128v-224c0-70.4-57.6-128-128-128z" fill="#FFFFFF" p-id="5662"></path><path d="M384 672c-54.4 0-96-41.6-96-96V192c0-54.4 41.6-96 96-96h512c54.4 0 96 41.6 96 96v384c0 54.4-41.6 96-96 96H384z" fill="#1D4775" p-id="5663"></path><path d="M896 128c35.2 0 64 28.8 64 64v384c0 35.2-28.8 64-64 64H384c-35.2 0-64-28.8-64-64V192c0-35.2 28.8-64 64-64h512m0-64H384C313.6 64 256 121.6 256 192v384c0 70.4 57.6 128 128 128h512c70.4 0 128-57.6 128-128V192c0-70.4-57.6-128-128-128z" fill="#FFFFFF" p-id="5664"></path></svg>