<?xml version="1.0" standalone="no"?><!DOCTYPE svg PUBLIC "-//W3C//DTD SVG 1.1//EN" "http://www.w3.org/Graphics/SVG/1.1/DTD/svg11.dtd"><svg t="1739680292602" class="icon" viewBox="0 0 1024 1024" version="1.1" xmlns="http://www.w3.org/2000/svg" p-id="5665" xmlns:xlink="http://www.w3.org/1999/xlink" width="200" height="200"><path d="M222.2 0h581.72c15.84 3.7 32.42 4.28 47.78 10.04 29.34 8.16 56.64 22.86 80.54 41.64 10.5 9.54 22.12 17.96 31 29.18 7.2 9.46 15.32 18.24 21.66 28.34 19.22 29.28 31.56 63 36.32 97.68 0.8 5.12 1.24 10.32 2.78 15.3v581.72c-3.94 19-6.12 38.54-13.12 56.8-11.18 36.14-33.16 67.96-59.32 94.86-15.66 14-32.38 26.92-50.44 37.68-19.4 10.88-40.38 18.84-61.98 24.1-11.56 3.28-23.76 3.2-35.3 6.66H222.14c-6.68-2.16-13.8-1.84-20.6-3.4-45.04-7.52-87.96-27.7-122.04-58.08-39.74-36.66-68.02-86.28-76.14-139.98-1.18-6.24-1.52-12.64-3.36-18.74V222.14c2.16-6.7 1.92-13.84 3.34-20.7 9.78-61.42 44.6-118.78 95.44-154.78C128.76 24.08 164.32 8.76 201.5 3.34c6.86-1.44 13.98-1.2 20.7-3.34M88.52 134.52c0.06 39.68 0.12 79.34-0.02 119.02 46.9-0.22 93.84 0.46 140.7-0.3 0.76-39.56-0.42-79.22 0.32-118.78-47 0.16-94 0.02-141 0.06m203.62-0.14c-0.42 9.86-0.52 19.74-0.16 29.62 0.18 243.18-0.2 486.36 0.18 729.52 12.86-0.68 26.16 1.72 38.6-2.58 14.16-3.68 28.62-8.46 39.5-18.7 14.12-11.1 26.34-24.44 36.96-38.88 8.14-11.1 11.56-24.62 17.14-37.02 2.3-4.06 1.36-8.96 3.36-13.08 6.74-14.12 4.6-30.16 4.26-45.26 0.06-74.68-0.08-149.36 0.08-224.02 0.88-3.8-0.6-10.7 3.64-12.22 8.96 10.6 18.56 20.7 26.8 31.9 11.3 13.88 23.62 26.88 35.26 40.48 9.2 12.08 18.88 23.78 29.16 34.98 15.52 17.84 29.42 37.04 45.42 54.48 16.56 22.02 35.96 41.7 52.42 63.82 4.94 6.9 11.5 12.38 16.5 19.24 10.94 14.4 23.08 27.78 34.46 41.8 8.7 9.86 17.9 19.32 25.92 29.76 11.48 15.68 25.2 29.54 37.08 44.92 7.54 10.4 16.36 19.78 24.38 29.8 5.56 0.98 11.26 0.42 16.9 0.52 53.92-0.08 107.84 0.02 161.76-0.04-10.88-11.02-19.64-23.84-29.5-35.72-12.86-13.9-24.82-28.58-36.34-43.6-17.26-18.24-31.74-38.82-48.4-57.56-6.98-9.6-14.88-18.48-22.64-27.44-9.16-8.98-15.68-20.18-24.72-29.28-9.86-12.78-20.4-24.98-30.62-37.48-11.84-11.64-20.28-26.14-31.98-37.92-15.36-16.16-27.38-35.1-42.78-51.26-18.66-24.5-39.58-47.16-58.62-71.4-1.26-1.88-3.52-4.32-1.28-6.42 9.86-12.2 21.1-23.28 30.22-36.1 11.62-11.24 19.86-25.38 31.04-37.06 7.46-9.84 16.68-18.18 23.76-28.34 9.98-13.86 22.32-25.78 32.66-39.36 9.1-12.06 19.74-22.86 29.46-34.42 16.26-20.96 34.18-40.5 50.98-61.02 10.46-12.28 19.62-25.68 31-37.18 7.84-8.84 13.82-19.22 22.22-27.58 10.4-10.4 18.04-23.12 28.28-33.66 6.64-8.7 14.7-16.4 20.1-25.98-55.56-0.18-111.12 0.06-166.66-0.26-3.54 0.14-7.2-0.28-10.58 0.86-8.96 6.46-14.08 16.62-21.42 24.66-11.54 12.6-21.74 26.34-32.42 39.66-10.4 12.22-21.84 23.58-31.18 36.66-6.28 8.96-14.42 16.38-20.94 25.14-9.92 12.64-19.78 25.34-30.78 37.08-13.3 15.44-25.1 32.14-39.04 47.04-12.78 13.42-22.7 29.24-35.66 42.5-18.14 19.32-32.84 41.54-51.42 60.48-10.6 10.94-17.98 24.6-29.26 34.9-4.08 3.86-6.64 9.04-10.84 12.8-1.72-4.52-2.16-9.38-2.42-14.16 0.04-101.32-0.02-202.66 0.02-304-0.26-14.54 1.06-29.1-0.16-43.62-46.56 0.14-93.14 0.14-139.7 0M88.84 303.32c-0.58 10.2-0.4 20.44-0.38 30.68 0.22 186.48 0.06 372.98 0.06 559.46 13.38-0.66 27.14 1.72 40.2-2.24 21.02-3.8 41.24-12.98 57.4-27.04 7.86-8.14 16.9-15.26 23.2-24.76 6.66-10.06 13-20.68 15.76-32.56 1.84-8.26 5.62-16.18 5.62-24.76 0.02-114.7 0.4-229.4 0.2-344.1 0.42-44.94-0.92-89.86-0.1-134.8-47.32 0.7-94.66 0.58-141.96 0.12z" fill="#00ABFF" p-id="5666"></path><path d="M88.52 134.52c47-0.04 94 0.1 141-0.06-0.74 39.56 0.44 79.22-0.32 118.78-46.86 0.76-93.8 0.08-140.7 0.3 0.14-39.68 0.08-79.34 0.02-119.02zM292.14 134.38c46.56 0.14 93.14 0.14 139.7 0 1.22 14.52-0.1 29.08 0.16 43.62-0.04 101.34 0.02 202.68-0.02 304 0.26 4.78 0.7 9.64 2.42 14.16 4.2-3.76 6.76-8.94 10.84-12.8 11.28-10.3 18.66-23.96 29.26-34.9 18.58-18.94 33.28-41.16 51.42-60.48 12.96-13.26 22.88-29.08 35.66-42.5 13.94-14.9 25.74-31.6 39.04-47.04 11-11.74 20.86-24.44 30.78-37.08 6.52-8.76 14.66-16.18 20.94-25.14 9.34-13.08 20.78-24.44 31.18-36.66 10.68-13.32 20.88-27.06 32.42-39.66 7.34-8.04 12.46-18.2 21.42-24.66 3.38-1.14 7.04-0.72 10.58-0.86 55.54 0.32 111.1 0.08 166.66 0.26-5.4 9.58-13.46 17.28-20.1 25.98-10.24 10.54-17.88 23.26-28.28 33.66-8.4 8.36-14.38 18.74-22.22 27.58-11.38 11.5-20.54 24.9-31 37.18-16.8 20.52-34.72 40.06-50.98 61.02-9.72 11.56-20.36 22.36-29.46 34.42-10.34 13.58-22.68 25.5-32.66 39.36-7.08 10.16-16.3 18.5-23.76 28.34-11.18 11.68-19.42 25.82-31.04 37.06-9.12 12.82-20.36 23.9-30.22 36.1-2.24 2.1 0.02 4.54 1.28 6.42 19.04 24.24 39.96 46.9 58.62 71.4 15.4 16.16 27.42 35.1 42.78 51.26 11.7 11.78 20.14 26.28 31.98 37.92 10.22 12.5 20.76 24.7 30.62 37.48 9.04 9.1 15.56 20.3 24.72 29.28 7.76 8.96 15.66 17.84 22.64 27.44 16.66 18.74 31.14 39.32 48.4 57.56 11.52 15.02 23.48 29.7 36.34 43.6 9.86 11.88 18.62 24.7 29.5 35.72-53.92 0.06-107.84-0.04-161.76 0.04-5.64-0.1-11.34 0.46-16.9-0.52-8.02-10.02-16.84-19.4-24.38-29.8-11.88-15.38-25.6-29.24-37.08-44.92-8.02-10.44-17.22-19.9-25.92-29.76-11.38-14.02-23.52-27.4-34.46-41.8-5-6.86-11.56-12.34-16.5-19.24-16.46-22.12-35.86-41.8-52.42-63.82-16-17.44-29.9-36.64-45.42-54.48-10.28-11.2-19.96-22.9-29.16-34.98-11.64-13.6-23.96-26.6-35.26-40.48-8.24-11.2-17.84-21.3-26.8-31.9-4.24 1.52-2.76 8.42-3.64 12.22-0.16 74.66-0.02 149.34-0.08 224.02 0.34 15.1 2.48 31.14-4.26 45.26-2 4.12-1.06 9.02-3.36 13.08-5.58 12.4-9 25.92-17.14 37.02-10.62 14.44-22.84 27.78-36.96 38.88-10.88 10.24-25.34 15.02-39.5 18.7-12.44 4.3-25.74 1.9-38.6 2.58-0.38-243.16 0-486.34-0.18-729.52-0.36-9.88-0.26-19.76 0.16-29.62zM88.84 303.32c47.3 0.46 94.64 0.58 141.96-0.12-0.82 44.94 0.52 89.86 0.1 134.8 0.2 114.7-0.18 229.4-0.2 344.1 0 8.58-3.78 16.5-5.62 24.76-2.76 11.88-9.1 22.5-15.76 32.56-6.3 9.5-15.34 16.62-23.2 24.76-16.16 14.06-36.38 23.24-57.4 27.04-13.06 3.96-26.82 1.58-40.2 2.24 0-186.48 0.16-372.98-0.06-559.46-0.02-10.24-0.2-20.48 0.38-30.68z" fill="#FFFFFF" p-id="5667"></path></svg>