<?xml version="1.0" standalone="no"?><!DOCTYPE svg PUBLIC "-//W3C//DTD SVG 1.1//EN" "http://www.w3.org/Graphics/SVG/1.1/DTD/svg11.dtd"><svg t="1740486008734" class="icon" viewBox="0 0 1024 1024" version="1.1" xmlns="http://www.w3.org/2000/svg" p-id="14220" xmlns:xlink="http://www.w3.org/1999/xlink" width="200" height="200"><path d="M959.609992 471.249901c0-81.270978-64.778352-147.170874-144.725172-147.170875-4.968152 0-9.788947 0.258896-14.605649 0.724501-31.18014-65.458851-96.949053-110.75243-173.276439-110.75243-54.222949 0-102.94051 22.887266-137.891533 59.524699 63.989383 20.799722 117.752868 64.809051 152.09093 122.131594 116.376521 2.797719 210.266911 98.766444 212.256218 217.24586 61.156872-17.172101 106.151645-74.065879 106.151645-141.703349z" fill="#1AA4FC" p-id="14221"></path><path d="M959.609992 471.249901c0-81.270978-64.778352-147.170874-144.725172-147.170875-4.968152 0-9.788947 0.258896-14.605649 0.724501-31.18014-65.458851-96.949053-110.75243-173.276439-110.75243-54.222949 0-102.94051 22.887266-137.891533 59.524699 63.989383 20.799722 117.752868 64.809051 152.09093 122.131594 116.376521 2.797719 210.266911 98.766444 212.256218 217.24586 61.156872-17.172101 106.151645-74.065879 106.151645-141.703349z" fill="#1AA4FC" p-id="14222"></path><path d="M636.050806 435.844529c-5.929036 0-11.788487 0.301875-17.568121 0.877997-38.267559-80.521918-119.348202-136.061862-213.192544-136.061862-122.834606 0-223.783763 95.118358-235.527224 216.869283C108.064716 532.280906 62.128501 588.625168 62.128501 655.876851c0 78.472236 62.559824 142.090159 139.727345 142.090159h420.558381v-1.018189c4.500501 0.347924 9.049097 0.524956 13.636579 0.524956 98.251721 0 177.841408-80.956823 177.841407-180.810019 0-99.862405-79.589686-180.819229-177.841407-180.819229z m-61.742203 219.409129l-26.034957-26.467815c-9.467629 15.836687-21.814842 29.91738-36.384675 41.175795-25.446555 19.663852-55.845912 30.05655-87.911212 30.05655-35.392068 0-69.479421-13.05534-95.982028-36.761252-26.133194-23.375383-43.156916-55.480592-47.937802-90.40194l0.334621-0.046048a20.116153 20.116153 0 0 1-0.207731-2.736321c0-11.110035 9.039887-20.149922 20.149922-20.149923 10.18599 0 18.608823 7.604188 19.945261 17.427928l0.332575-0.046049c7.16212 52.323693 51.599192 91.780333 103.365182 91.780333 40.395012 0 77.136821-24.339338 94.265944-60.82839l-27.143197-27.594475h83.208097v84.591607z" fill="#1AA4FC" p-id="14223"></path></svg>